<svg xmlns="http://www.w3.org/2000/svg" width="256" height="256"><path fill-opacity=".016" d="M0 128.004v128.004l128.25-.254 128.25-.254.254-127.75L257.008 0H0v128.004m.485.496c0 70.4.119 99.053.265 63.672.146-35.38.146-92.98 0-128C.604 29.153.485 58.1.485 128.5" fill="#1976D2" fill-rule="evenodd"/><path fill-opacity=".051" d="M101.746 20.625c-2.964 1.553-3.324 2.397-1.711 4.01.57.57 1.132 5.393 1.25 10.719l.215 9.683 2.5-.466c1.375-.256 5.313-.759 8.75-1.117 3.438-.358 6.25-1.056 6.25-1.552s-.392-.902-.871-.902-1.183-2.351-1.564-5.225c-.382-2.874-1.17-5.799-1.752-6.5-1.257-1.514-5.435-1.696-6.313-.275-1.442 2.333-2.5.665-2.5-3.941 0-2.718-.339-5.151-.754-5.407-.415-.256-1.99.182-3.5.973m51.502-.919c-1.779.343-2.131.913-1.677 2.722.817 3.255-1.371 17.83-2.81 18.72-1.925 1.189-.587 1.742 6.8 2.809 10.672 1.543 9.942 1.985 9.918-6.007-.023-7.822-.996-9.265-5.824-8.638l-2.846.37.668-5.341c.705-5.647.753-5.594-4.229-4.635M88 26.531c0 3.098 2.597 4.3 4.714 2.183 2.117-2.117.915-4.714-2.183-4.714C88.49 24 88 24.49 88 26.531m86.17-.781c-1.316 2.56-.344 4.25 2.445 4.25 2.874 0 4.133-2.393 2.374-4.513-1.652-1.991-3.717-1.879-4.819.263M66.861 28.98c-1.607 1.347-1.999 2.225-1.227 2.75 1.651 1.122 5.595 15.974 4.858 18.295-.73 2.301-.34 2.362 5.008.784 2.2-.649 4.225-1.244 4.5-1.322.275-.078 2.188-.495 4.25-.926 3.658-.764 4.864-2.023 2.647-2.762-.607-.202-1.845-2.564-2.75-5.249-2.093-6.202-4.185-7.621-8.012-5.435l-2.826 1.615-1.247-4.865C71.376 29.189 70.457 27 70.018 27c-.438 0-1.859.891-3.157 1.98m69.694.27c-3.633 3.197-4.255 7.59-1.561 11.016 2.626 3.338 7.092 3.648 10.042.698 2.481-2.481 1.694-4.437-1.086-2.701-2.645 1.652-5.347-.095-5.778-3.736-.462-3.898 1.162-5.221 4.328-3.527 2.029 1.086 2.788 1.108 3.77.112.975-.988.828-1.543-.711-2.679-2.796-2.064-6.068-1.766-9.004.817m-45.582 2.418c-1.36.918-2.587 1.745-2.727 1.838-.14.093.475 1.632 1.366 3.419 1.03 2.063 1.417 4.508 1.062 6.697l-.559 3.447 3.692-.666c5.067-.913 5.559-1.341 3.791-3.294-.842-.931-1.834-4.262-2.203-7.401-.368-3.139-.958-5.708-1.31-5.708-.352 0-1.753.751-3.112 1.668m83.527.108c-2.888.303-3.003.506-3.076 5.406-.056 3.739-.567 5.45-1.927 6.444-2.317 1.694-1.965 2.034 3.341 3.226l4.28.962-.585-2.663c-.321-1.464.089-4.9.912-7.635.824-2.736 1.173-5.217.776-5.515-.397-.297-2.071-.399-3.721-.225M107 34.862c0 1.654.468 4.24 1.041 5.746.92 2.42 1.214 2.566 2.524 1.256 1.991-1.992.606-9.207-1.859-9.682-1.303-.251-1.706.382-1.706 2.68m49.575-1.695c-1.133 3.542-1.12 7.966.026 8.917 1.741 1.445 3.613-2.23 3.209-6.303-.32-3.226-2.481-4.973-3.235-2.614m-104.223.925c-3.586 1.039-9.019 6.735-9.946 10.426-.919 3.662.328 7.37 3.568 10.61 5.888 5.888 19.117 2.544 19.847-5.017.233-2.407-.043-3.205-1-2.89-.726.24-1.464 1.409-1.639 2.599-.36 2.441-3.738 5.18-6.389 5.18-.969 0-3.134-1.237-4.812-2.75C45.837 46.711 47.328 37 54.323 37c1.802 0 3.81.532 4.46 1.183 1.817 1.817 2.431.381 1.094-2.554-1.265-2.775-2.429-3.013-7.525-1.537m70.398-.403c-2.674.699-2.134 3.311.685 3.311 3.246 0 7.565-1.699 7.565-2.975 0-1.016-4.885-1.215-8.25-.336m60.583 2.736c.806 2.1-1.293 8.824-3.19 10.222-1.887 1.39-2.589 1.037 8.512 4.27 8.519 2.48 8.717 2.495 7.997.619-.309-.805-.03-3.999.62-7.097 1.092-5.208 1.032-5.744-.795-7.095-1.087-.803-2.976-1.275-4.197-1.047-1.221.228-1.982.029-1.691-.441.291-.471-1.346-.856-3.637-.856-3.195 0-4.039.332-3.619 1.425M75.49 39.016c-.988 1.599.315 7.578 1.947 8.932 1.976 1.639 2.909-.29 2.136-4.412-.713-3.801-2.978-6.308-4.083-4.52m112.532 4.405c-1.318 4.706-.819 6.822 1.405 5.969 1.445-.555 3.805-8.206 2.956-9.58-1.266-2.048-3.232-.42-4.361 3.611m15.51.544c-1.088 1.202-1.596 2.919-1.309 4.423.352 1.839-.028 2.589-1.508 2.976-1.421.372-1.827 1.098-1.441 2.577.296 1.132.163 2.059-.296 2.059-1.152 0-3.978 2.926-3.978 4.119 0 .537 1.191 2.08 2.646 3.429 3.437 3.185 9.97 3.39 13.165.413 3.604-3.357 2.493-5.745-4.311-9.261l-3-1.551 4.091.536c3.551.465 4.361.191 6.144-2.075 1.129-1.435 2.749-2.61 3.6-2.61 3.411 0 2.391-1.934-2.321-4.397-5.949-3.111-9.087-3.285-11.482-.638m4.737 1.296c-1.674 2.164-2.113 4.376-1.157 5.83.768 1.168 1.179 1.077 2.407-.532 1.652-2.166 1.948-5.152.594-5.989-.487-.301-1.318.01-1.844.691m-7.912 14.252c-.745 1.941 1.357 4.487 3.706 4.487 2.942 0 3.453-2.163.985-4.162-2.758-2.234-3.928-2.315-4.691-.325m-39.839 13.302c-.285.285-.518 2.468-.518 4.852V82h-12.583c-9.624 0-12.485.294-12.165 1.25.304.909 3.741 1.25 12.584 1.25h12.166l-.001 2.715L160 89.93l-10.25.285c-5.977.166-10.25.702-10.25 1.285s4.273 1.119 10.25 1.285l10.25.285.002 3.215.001 3.215-14.501-.301c-12.567-.262-14.502-.095-14.502 1.25 0 1.706 1.658 1.79 32.75 1.657 8.938-.038 16.25.303 16.25.758 0 .454-.823 1.571-1.829 2.481-2.791 2.526-20.884 2.333-27.803-.297-2.823-1.073-5.41-1.672-5.75-1.332-.34.339-.621 5.83-.624 12.201-.006 12.887-.855 17.125-4.508 22.509-3.517 5.182-3.101 6.047 1.629 3.389 4.832-2.716 9.691-7.961 11.089-11.971l.992-2.844H177v7.23l-5.5-.687c-6.322-.79-7.465.653-1.957 2.471 2.712.895 3.68 1.853 4.125 4.078.643 3.212 2.964 3.759 7.935 1.869 4.848-1.843 5.331-3.429 5.365-17.604.028-11.574.241-13.224 1.782-13.821 1.469-.57 1.028-1.312-2.75-4.626-2.475-2.171-4.05-3.886-3.5-3.81 3.8.521 17.5-.274 17.5-1.016 0-.504-1.861-2.39-4.136-4.192l-4.137-3.276-2.249 2.615c-2.05 2.383-3.016 2.645-10.866 2.942l-8.617.327.003-3.25L170 93h11c6.05 0 11-.406 11-.903s-1.687-2.282-3.75-3.966l-3.75-3.064 5-.049c7.459-.073 8.579-1.231 4.528-4.685-5.472-4.665-5.829-4.723-8.632-1.391-2.378 2.825-3.062 3.058-8.985 3.058-6.404 0-6.411-.003-6.411-2.893 0-1.778.643-3.14 1.667-3.533.981-.376 1.29-.99.75-1.489-1.053-.976-11.119-2.05-11.899-1.27m-50.052 3.221L107.626 79H82.313C60.708 79 57 79.215 57 80.47c0 1.202 2.325 1.521 12.75 1.75l12.75.28-6 5.779c-3.3 3.178-8.339 6.932-11.197 8.341l-5.198 2.563 1.854 4.659c1.042 2.618 2.442 4.572 3.197 4.463 3.364-.489 34.761-7.174 38.25-8.144 4.674-1.299 4.886-1.193 7.731 3.869 1.781 3.17 2.803 3.97 5.069 3.97 6.55 0 5.473-9.092-1.729-14.586-3.926-2.994-16.262-7.665-17.775-6.73-.487.301 1.29 2.46 3.947 4.799l4.833 4.252-2.991.581c-1.645.319-8.616.848-15.491 1.176l-12.5.596 7.5-4.149c4.125-2.282 8.737-4.81 10.25-5.617 1.513-.808 2.75-1.65 2.75-1.871 0-.222-1.687-1.294-3.75-2.383l-3.75-1.98 17.75-.044c10.049-.025 17.75-.441 17.75-.96 0-.814-5.712-5.718-8.597-7.381-.603-.347-2.375.702-3.937 2.333m-97.368 6.096C7.139 91.815 2.689 103.608.972 114.261c-1.536 9.535-.753 27.823 1.552 36.239 4.35 15.883 20.482 41.863 24.935 40.154 1.262-.484.324-2.116-4.528-7.882-6.686-7.945-14.763-23.36-17.433-33.272-2.584-9.588-3.072-26.563-1.051-36.536 2.281-11.259 6.548-22.027 12.039-30.388C21.363 75.151 21.774 74 19.551 74c-.796 0-3.7 3.66-6.453 8.132M235 74.852c0 .468 2.031 3.944 4.514 7.724C247.946 95.414 253 112.624 253 128.5c0 20.296-8.177 41.459-21.889 56.651-4.191 4.643-5.121 6.235-4.183 7.16 2.318 2.286 14.703-13.957 21.115-27.692 5.263-11.275 6.983-18.321 7.655-31.358.691-13.383-.704-23.395-4.856-34.879C247.463 89.038 238.586 74 236.449 74c-.797 0-1.449.383-1.449.852m-65.002 12.45c.002 2.745.107 2.796 5.136 2.5 3.949-.232 5.464-.801 6.564-2.464 1.41-2.132 1.34-2.166-5.137-2.5l-6.565-.338.002 2.802M84 111v6H73c-9.111 0-11 .258-11 1.5s1.889 1.5 11 1.5h11v16H69.427c-12.603 0-14.53.208-14.25 1.542.283 1.351 4.569 1.552 34.615 1.624 18.861.045 34.611-.239 35-.631.68-.686-2.668-3.874-7.661-7.297-2.281-1.564-2.464-1.506-5 1.578-2.521 3.068-2.934 3.202-9.881 3.193L95 136v-16h12c6.6 0 12-.396 12-.88 0-.483-2.089-2.591-4.642-4.683l-4.642-3.803-2.844 3.183c-2.401 2.687-3.547 3.183-7.358 3.183H95v-4.417c0-2.498.511-4.587 1.177-4.809.647-.215.846-.928.441-1.583-.436-.705-3.16-1.191-6.677-1.191H84v6m70 1.439c0 2.427.061 2.442 11.502 2.75l11.502.311-.002-2.75L177 110h-23v2.439m0 8.669V124h23V117.921l-11.5.147-11.5.147v2.893m-90 35.833c0 .518.45 1.219 1 1.559.55.34 1 1.266 1 2.059 0 1.858-8.558 2.031-9.417.191-.451-.968-.723-.942-1.204.114-.342.749-1.467 2.087-2.5 2.972-2.128 1.822-2.515 5.089-.629 5.312.688.081 1.925.24 2.75.352.825.112 3.413.271 5.75.352 3.827.133 4.25.397 4.25 2.648 0 2.435-.187 2.5-7.2 2.5-5.213 0-6.898.302-6.106 1.094.637.637 3.645.951 7.202.75l6.108-.344-.002 4.225c-.002 4.161-.048 4.216-3.002 3.625-1.911-.382-3-.192-3 .525 0 .619.62 1.125 1.378 1.125.758 0 2.043 1.002 2.856 2.226 1.31 1.972 1.779 2.089 4.122 1.022 2.394-1.091 2.644-1.727 2.644-6.727V177l4.25-.151c2.338-.083 5.337-.195 6.666-.25 3.156-.129 3.632-1.775.991-3.425-1.77-1.105-2.37-1.065-3.832.258-.953.862-3.16 1.568-4.904 1.568-2.716 0-3.171-.359-3.171-2.5 0-2.217.424-2.503 3.75-2.529 2.729-.022 4.635-.835 7-2.986 1.787-1.626 3.25-3.305 3.25-3.73 0-1.376-3.862-3.288-4.513-2.235-.333.539-2.364.98-4.515.98-2.935 0-3.776-.348-3.373-1.396.295-.771-.49-2.115-1.754-3-2.519-1.764-5.845-2.142-5.845-.663m39 0c0 .518.45 1.219 1 1.559.55.34 1 1.266 1 2.059 0 1.866-8.632 2.044-9.25.191-.541-1.622-5.675 4.139-5.718 6.417-.018.916.531 1.868 1.218 2.115 2.014.722 4.75-1.188 4.75-3.317 0-1.651.692-1.965 4.327-1.965 4.275 0 4.321.037 3.869 3.118-.449 3.059-.541 3.107-4.827 2.519L95 169.038v10.481c0 8.417.281 10.481 1.429 10.481.785 0 2.103-.675 2.928-1.5 1.029-1.029 3.564-1.5 8.072-1.5 5.174 0 6.571.319 6.571 1.5 0 1.605 1.75 1.946 3.683.717 1.699-1.08 1.984-17.709.337-19.693-.696-.838-.872-1.539-.392-1.557.479-.019 1.946-.928 3.258-2.021 2.316-1.928 2.333-2.047.574-3.99-1.236-1.366-2.138-1.678-2.836-.98-.563.563-2.72 1.024-4.793 1.024-2.814 0-3.633-.353-3.232-1.396.295-.771-.49-2.115-1.754-3-2.519-1.764-5.845-2.142-5.845-.663m39-.563c0 .208.681 2.008 1.513 4 1.448 3.464 1.426 3.622-.5 3.622-1.473 0-2.013-.661-2.013-2.465 0-2.492-2.459-4.535-5.46-4.535-1.453 0-1.453.268.008 3.093 1.764 3.412 1.03 5.417-.979 2.671-1.435-1.963-2.569-1.331-2.569 1.434 0 1.026-.675 2.124-1.5 2.44-2.152.826-1.909 4.362.3 4.362.99 0 2.289-.489 2.887-1.087.783-.783 1.275-.783 1.759 0 .37.598 3.372 1.087 6.672 1.087 3.745 0 5.768.376 5.382 1-.34.55-1.491 1-2.559 1-1.274 0-1.941.687-1.941 2 0 1.81-.667 2-7 2-4 0-7 .429-7 1s3 1 7 1h7v3.045c0 2.939-.122 3.023-3.5 2.389-4.026-.755-4.911.995-1 1.977 1.375.345 2.5 1.294 2.5 2.108 0 1.724 2.3 1.926 5.066.446 1.469-.786 1.934-2.109 1.934-5.5V179h7c3.85 0 7-.38 7-.845 0-.465-.941-1.696-2.09-2.737-1.975-1.787-2.161-1.796-3.361-.155-1.399 1.914-8.549 2.483-8.549.681 0-.581 2.036-1.957 4.524-3.057 2.488-1.101 4.307-2.352 4.042-2.779-.264-.428 1.148-1.555 3.138-2.504l3.619-1.726-2.173-2.172c-1.84-1.84-2.475-1.984-4.148-.94-1.086.679-2.717 1.234-3.623 1.234-1.152 0-.779-.654 1.236-2.171 1.587-1.194 3.257-2.488 3.711-2.876.454-.387-.561-1.188-2.256-1.779-2.965-1.033-3.156-.926-5.096 2.876-1.108 2.173-2.257 3.95-2.553 3.95-.297 0-.258-.454.085-1.009 1.079-1.746-.445-4.642-3.072-5.839-2.673-1.218-3.434-1.39-3.434-.774m31 3.989c0 4.139-.22 4.534-2.75 4.925-2.652.411-2.67.453-.5 1.184 2.801.943 2.783 1.612-.243 8.972-2.796 6.803-2.415 8.304 1.078 4.246l2.415-2.806v13.051l3.75-.114c2.063-.062 5.886-1.18 8.498-2.485l4.747-2.371 3.923 2.595 3.922 2.596 2.08-2.08c2.318-2.318 2.577-3.08 1.048-3.08-.568 0-2.573-.644-4.455-1.43l-3.423-1.43 2.15-3.927c1.183-2.159 2.85-3.878 3.705-3.819.984.067 1.67-.895 1.869-2.62.251-2.178-.351-3.131-3-4.746l-3.314-2.021 3.191-.003c4.069-.005 4.961-1.434 2.132-3.415-1.953-1.368-2.401-1.376-3.845-.069-1.998 1.808-3.072 1.909-2.457.23.594-1.621-.484-3.168-3.205-4.6-2.813-1.481-3.644-1.454-3.06.1 2.261 6.017 2.353 5.877-3.728 5.631l-5.642-.228.307-3.076c.27-2.704-.027-3.115-2.443-3.393-2.639-.304-2.75-.136-2.75 4.183M57 166c0 1.814.667 2 7.171 2 5.24 0 7.659-.441 8.982-1.638 1.475-1.335 2.09-1.405 3.328-.378 1.252 1.04 1.519.976 1.519-.362 0-1.393-1.481-1.622-10.5-1.622-9.833 0-10.5.127-10.5 2m52.29 1.002c-.179 2.557.144 2.998 2.194 2.998 2.158 0 5.516-3.179 5.516-5.223 0-.427-1.687-.776-3.75-.775-3.452.002-3.767.24-3.96 3m72.71-.885c0 .624-.882.886-2 .593-2.67-.698-2.479.396.441 2.519 2.338 1.699 2.396 1.677 3.417-1.25.84-2.412.762-2.979-.41-2.979-.796 0-1.448.502-1.448 1.117m6.892-.205c1.151.729 1.038 1.377-.649 3.747-1.994 2.801-2 2.944-.224 6.353l1.817 3.488 1.082-2.815c.595-1.548 1.082-3.461 1.082-4.25 0-.789.879-1.435 1.953-1.435 1.883 0 1.892-.109.25-2.994-1.182-2.078-2.467-2.991-4.203-2.984-1.83.006-2.127.245-1.108.89M135 167.5c0 1.199 1.493 1.5 7.441 1.5 4.279 0 7.726-.462 8.113-1.087.369-.598 1.521-.865 2.559-.594 1.038.272 1.887.086 1.887-.413 0-.498-4.5-.906-10-.906-8.222 0-10 .267-10 1.5m-35 7c0 1.833.533 2.5 2 2.5s2-.667 2-2.5-.533-2.5-2-2.5-2 .667-2 2.5m9 0c0 2 .5 2.5 2.5 2.5s2.5-.5 2.5-2.5-.5-2.5-2.5-2.5-2.5.5-2.5 2.5m69.032 6.807-.032 7.806 3.06-1.806c1.683-.994 3.891-2.707 4.908-3.807 1.717-1.858 1.739-2.269.316-5.793-1.469-3.636-1.61-3.722-3.424-2.08-1.79 1.62-1.97 1.609-3.344-.208-1.31-1.731-1.456-1.156-1.484 5.888M100 182c0 2.333.444 3 2 3s2-.667 2-3-.444-3-2-3-2 .667-2 3m9 0c0 2.533.389 3 2.5 3 2.111 0 2.5-.467 2.5-3s-.389-3-2.5-3c-2.111 0-2.5.467-2.5 3m-47 24.829c0 .552.543 1.185 1.206 1.406.932.311.949 2.06.074 7.713-.672 4.34-.781 8.234-.269 9.581 1.293 3.401 4.934 5.471 9.623 5.471 5.569 0 8.624-3.553 10.277-11.953.692-3.519 1.828-6.393 2.65-6.709 2.47-.947 1.586-2.088-2.163-2.791-4.141-.777-5.196-.213-3.477 1.858 1.696 2.043-.315 12.434-2.908 15.027-1.615 1.615-2.469 1.79-4.741.973-2.72-.977-2.768-1.134-2.557-8.42.184-6.338.538-7.667 2.417-9.084 2.101-1.585 2.114-1.685.284-2.208C67.731 206.356 62 205.88 62 206.829m127.308 5.181c-3.636 1.464-5.724 5.549-4.685 9.17 1.143 3.987 5.397 7.266 8.251 6.36 3.005-.954 5.126-3.34 5.126-5.766 0-1.956-.113-1.982-1.829-.429-2.159 1.954-4.308 2.118-5.971.455-1.95-1.95-1.425-2.662 2.8-3.8 4.493-1.21 5.112-3.107 1.777-5.443-2.507-1.757-2.474-1.754-5.469-.547m-78.297 1.477c-1.759 2.12-.5 4.513 2.374 4.513 2.789 0 3.761-1.69 2.445-4.25-1.102-2.142-3.167-2.254-4.819-.263M189 215c0 .55.675 1 1.5 1s1.5-.45 1.5-1-.675-1-1.5-1-1.5.45-1.5 1m-17.548 2.433c-2.038 3.11-.691 5.939 3.527 7.41 2.955 1.03 3.701 2.143 2.345 3.499-.372.372-1.674-.262-2.894-1.408-2.563-2.408-4.124-1.099-2.441 2.045 1.398 2.612 6.114 2.67 8.436.103 2.57-2.839 1.643-6.318-2.153-8.082-1.776-.825-3.238-2.062-3.25-2.75-.03-1.696 1.463-1.576 2.969.239 1.609 1.939 2.965 1.06 2.298-1.49-.798-3.054-6.743-2.762-8.837.434m-14.769 1.174c-1.962 1.064-2.527 1.886-1.863 2.71 1.554 1.927 2.461 9.391 1.234 10.149-2.109 1.304-.174 2.058 4.359 1.697 4.535-.36 5.995-1.686 3.087-2.801-1.023-.393-1.5-1.994-1.5-5.036 0-3.893.237-4.386 1.859-3.871 2.076.659 4.685-1.766 3.668-3.411-.87-1.409-3.85-1.321-5.327.156-.933.933-1.2.933-1.2 0 0-1.548-.86-1.467-4.317.407m-66.261.076c-1.878.371-2.034.951-1.615 5.999.381 4.596.152 5.762-1.292 6.57-2.371 1.326-.215 2.712 4.254 2.733 2.992.014 3.216-.197 2.64-2.492-.914-3.642.402-9.493 2.136-9.493 1.079 0 1.455 1.291 1.455 5 0 2.75-.45 5-1 5s-1 .392-1 .872c0 .935 7.953 2.508 8.734 1.728.256-.257.091-1.059-.368-1.783-.458-.725-.692-3.594-.52-6.378.369-5.942-1.217-7.905-5.837-7.227-1.655.243-3.009.07-3.009-.385 0-.844-.896-.872-4.578-.144m21.516 1.417c-2.434.894-2.541 1.242-2.13 6.921.29 4.004.062 5.979-.688 5.979-.616 0-1.12.45-1.12 1s2.34 1 5.2 1c4.044 0 4.933-.267 4-1.2-.698-.698-1.2-4.044-1.2-8 0-3.74-.338-6.764-.75-6.721-.412.043-1.903.503-3.312 1.021m28.398 1.473c-2.144 2.145-2.476 3.187-1.985 6.25 1.088 6.797 7.309 9.297 11.645 4.681 2.739-2.915 2.286-3.942-1.16-2.632-2.806 1.067-5.836-.19-5.836-2.422 0-.867.972-1.45 2.418-1.45 3.628 0 5.582-1.017 5.582-2.907 0-4.624-6.617-5.567-10.664-1.52m-20.161-.823c2.405 5.281 8.022 15.25 8.593 15.25.408 0 1.814-2.812 3.124-6.25 1.31-3.437 3.065-7.037 3.9-8 1.41-1.625 1.252-1.75-2.204-1.75-3.268 0-3.645.245-3.088 2 .349 1.1.316 3.005-.074 4.234l-.709 2.233-.88-2.378c-.484-1.309-.615-3.214-.291-4.234.516-1.625.013-1.855-4.062-1.855-2.558 0-4.497.338-4.309.75M143.5 222c-.34.55.335 1 1.5 1s1.84-.45 1.5-1c-.34-.55-1.015-1-1.5-1-.485 0-1.16.45-1.5 1" fill="#1976D2" fill-rule="evenodd"/><path fill-opacity=".252" d="M101.24 21.326c-1.404.779-1.91 1.618-1.337 2.214.507.528 1.406 4.987 1.997 9.908.839 6.98.804 9.122-.162 9.735-.714.454.56.793 3.012.802 2.338.008 4.25-.435 4.25-.985s-.45-1-1-1-1-2.25-1-5c0-4.295.276-5 1.955-5 1.443 0 2.127.919 2.613 3.512.363 1.931.425 4.406.139 5.5-.446 1.705-.02 1.988 2.994 1.988 2.952 0 3.398-.279 2.796-1.75-.395-.962-.955-3.693-1.245-6.067-.697-5.709-3.998-8.234-7.643-5.846l-2.391 1.566-.681-5.451c-.733-5.872-.887-6.02-4.297-4.126m50.303-.395c-.317.512-.206 1.159.245 1.438 1.18.729-1.043 17.06-2.571 18.883-1.112 1.328-.743 1.583 2.772 1.918 3.232.309 3.942.092 3.498-1.065-.307-.799-.266-3.399.091-5.779.49-3.262 1.093-4.326 2.452-4.326.992 0 2.006.563 2.253 1.25.638 1.776-.376 8.015-1.544 9.5-.712.905-.467 1.254.889 1.264 1.029.007 2.955.303 4.278.657 1.908.51 2.223.352 1.522-.763-.487-.775-.743-3.959-.569-7.076.278-4.999.054-5.808-1.898-6.853-1.592-.852-2.86-.89-4.516-.136-2.213 1.008-2.283.906-1.811-2.647.27-2.033.645-4.484.835-5.446.263-1.337-.327-1.75-2.504-1.75-1.566 0-3.106.419-3.422.931m-63.135 4.447c-.809 2.109.327 3.622 2.721 3.622 1.51 0 1.931-.557 1.691-2.24-.373-2.614-3.556-3.611-4.412-1.382m86.553.169c-1.579 1.902-.414 4.686 1.786 4.267 2.198-.419 2.874-4.362.879-5.127-.814-.313-2.013.074-2.665.86M67.224 28.796c-1.666 1.282-1.979 2.049-1.168 2.86 1.562 1.562 5.963 17.132 5.317 18.814-.439 1.144.079 1.204 2.907.336 3.385-1.039 3.418-1.103 2.024-3.899-2.23-4.469-2.185-8.407.095-8.407 2.131 0 4.933 6.472 3.932 9.08-.472 1.23-.033 1.391 2.293.842C85.654 47.705 88.243 46 86.3 46c-.605 0-1.643-2.259-2.305-5.021-1.55-6.461-4.057-8.049-8.048-5.098l-2.812 2.079-1.227-5.48c-.674-3.014-1.492-5.47-1.817-5.458-.325.012-1.615.811-2.867 1.774M136 30c-4.002 4.002-1.387 13 3.777 13 1.956 0 6.223-2.663 6.223-3.884 0-.423-1.4-.564-3.111-.313-3.62.531-4.851-.845-4.874-5.446-.018-3.691 1.907-4.801 4.805-2.771 1.306.915 2.275 1.069 2.673.425 2.08-3.365-6.252-4.252-9.493-1.011m-45.33 2.219c-1.863 1.359-2.436 2.308-1.676 2.777 1.913 1.183 3.33 9.182 1.798 10.154-1.584 1.005 2.544.975 6.208-.046 2.039-.568 2.19-.815.82-1.342-1.087-.418-1.93-2.342-2.389-5.454-1.2-8.148-1.469-8.491-4.761-6.089m82.34.673c-1.518.423-2.047.967-1.355 1.395 1.393.861-.156 8.787-1.932 9.884-1.613.997-.859 1.451 3.777 2.274 3.041.54 3.727.431 2.861-.456-.853-.874-.799-2.591.214-6.828 1.929-8.065 2.06-7.834-3.565-6.269m-48.936.985c-1.334.373-2.632 1.296-2.884 2.052-.338 1.015.166 1.207 1.926.736 1.311-.351 3.397-.644 4.634-.651 1.327-.008 2.25-.629 2.25-1.514 0-1.57-1.844-1.764-5.926-.623M50.5 35.535c-8.905 4.52-10.314 16.19-2.51 20.8 3.647 2.154 7.505 2.077 12.637-.253 4.982-2.262 5.771-3.378 4.871-6.889l-.69-2.693-1.514 3.759c-1.565 3.884-3.998 5.207-8.408 4.574-5.277-.758-9.106-12.47-5.316-16.26 2.581-2.581 6.268-3.03 8.476-1.031 2.408 2.179 3.514 1.373 2-1.456-1.343-2.509-5.245-2.734-9.546-.551M184 37.351c0 2.921-2.008 8.937-3.26 9.768-.684.453 4.167 2.881 5.757 2.881.109 0 .235-1.237.279-2.75.133-4.59 2.029-8.434 3.977-8.063 2.452.468 2.631 3.678.443 7.947l-1.862 3.633 3.262 1.001c2.784.855 3.244.759 3.138-.65-.069-.909.471-3.779 1.199-6.378 1.576-5.629.47-7.74-4.055-7.74-1.583 0-2.878-.45-2.878-1s-1.35-1-3-1c-2.483 0-3 .405-3 2.351m19.913 6.736c-1.42 1.42-1.901 2.824-1.507 4.395.385 1.533.078 2.502-.913 2.882-.821.315-1.493 1.66-1.493 2.988 0 1.574-.697 2.597-2 2.938-5.25 1.373.377 8.71 6.68 8.71 3.818 0 8.669-3.928 7.764-6.286-.295-.769-2.316-2.398-4.49-3.62-3.936-2.212-5.851-5.18-2.02-3.129 3.015 1.613 4.949 1.243 7.657-1.465 1.375-1.375 3.154-2.5 3.954-2.5 2.687 0 1.487-1.481-3.443-4.25-5.873-3.298-7.451-3.401-10.189-.663m3.123 2.346c-1.452 2.714-.712 5.957 1.215 5.321 1.704-.562 3.695-4.73 3.056-6.397-.811-2.112-2.838-1.602-4.271 1.076m-7.679 13.08c-.855 2.228 1.49 4.487 4.658 4.487 3.589 0 4.547-2.493 1.721-4.473-2.783-1.949-5.634-1.955-6.379-.014m-88.823 17.031L107.898 80H82.449C66.15 80 57 80.36 57 81c0 .615 5.106 1.013 13.25 1.033l13.25.034-6.723 6.432c-3.698 3.538-8.648 7.404-11 8.59-2.352 1.186-4.408 2.27-4.569 2.409-.276.238 2.762 8.556 3.43 9.395.173.215.888-.084 1.589-.666.701-.582 6-1.971 11.774-3.085 5.775-1.114 14.692-2.96 19.816-4.101 5.125-1.142 9.756-1.805 10.291-1.474.535.33 2.085 2.363 3.445 4.517 3.57 5.656 8.447 4.916 8.447-1.281 0-5.785-9.703-13.206-20-15.296l-3.5-.71 4.824 4.961 4.824 4.961-11.824.664c-6.503.366-14.299.909-17.324 1.207l-5.5.543L82 93.481c5.775-3.109 10.89-6.027 11.366-6.483.477-.457-.873-1.749-3-2.87l-3.866-2.04 17.691-.044c9.73-.024 17.92-.415 18.2-.868.28-.453-1.68-2.458-4.356-4.456l-4.865-3.632-2.636 3.456M161 77.5V82h-12.5c-16.409 0-16.616 1.844-.25 2.219l12.25.281v6l-10.25.285c-13.647.379-13.388 2.215.313 2.215h10.564l-.314 3.25-.313 3.25-14.75.277c-8.707.163-14.75.675-14.75 1.25 0 .612 12.798.973 34.5.973 18.975 0 34.5-.374 34.5-.83 0-.457-1.912-2.192-4.25-3.855l-4.25-3.024-2.326 2.855c-2.224 2.729-2.696 2.854-10.75 2.854H170v-7h10.441c5.743 0 10.685-.394 10.982-.876.298-.482-1.264-2.128-3.471-3.658l-4.014-2.781-2.774 2.658c-2.076 1.989-3.799 2.657-6.855 2.657-3.773 0-4.115-.228-4.523-3.006-.243-1.653-.219-3.228.053-3.5.272-.272 6.269-.494 13.328-.494 7.058 0 12.833-.375 12.833-.833 0-.458-1.771-2.255-3.935-3.995l-3.936-3.162-2.132 2.995C183.979 81.839 183.49 82 176.932 82H170v-2.941c0-1.618.533-3.27 1.184-3.672 1.648-1.019-1.71-2.228-6.434-2.317L161 73v4.5m-144.979.746c-4.66 6.277-10.703 19.263-13.172 28.308C1.099 112.962.682 117.21.695 128.5c.013 12.314.341 15.084 2.724 23 4.177 13.877 10.642 25.728 19.365 35.5 5.296 5.933 6.686 4.384 1.565-1.745-12.556-15.029-19.312-30.269-21.335-48.13-2.007-17.716 2.762-38.091 12.571-53.716 5.534-8.814 5.84-12.442.436-5.163m219.812-3.745c-.342.341 1.734 4.372 4.612 8.957 9.765 15.553 14.456 35.555 12.5 53.292-2.067 18.74-8.873 33.959-22.107 49.434-6.154 7.196-4.644 8.619 1.681 1.584 24.799-27.583 30.217-65.737 13.953-98.268-4.579-9.16-9.517-16.121-10.639-14.999M178.768 105c-1.133 1.814-2.332 2-12.883 2-7.785 0-13.04-.496-15.885-1.5-2.338-.825-4.42-1.5-4.626-1.5-.206 0-.374 4.214-.374 9.364 0 12.24-1.363 19.06-4.974 24.886-1.619 2.613-2.58 4.75-2.135 4.75 1.511 0 8.943-5.489 11.01-8.132 1.132-1.448 2.507-3.811 3.054-5.25l.995-2.618H178v7l-6.25.056c-6.157.056-6.198.075-2.75 1.25 2.367.807 3.986 2.246 5 4.442 1.332 2.884 1.837 3.179 4.5 2.632 7.638-1.57 8.5-3.522 8.5-19.245 0-7.702.407-12.142 1.183-12.918.651-.651.989-1.339.75-1.529-3.217-2.561-7.763-5.688-8.269-5.688-.356 0-1.209.9-1.896 2M85 111.369V118H73.441c-7.451 0-11.339.355-10.941 1 .351.568 5.344 1 11.559 1H85v17H70c-9.333 0-15 .378-15 1 0 .647 12.167 1 34.5 1 20.253 0 34.5-.379 34.5-.917 0-.504-1.912-2.533-4.25-4.509l-4.25-3.591-3.106 3.509c-3.04 3.434-3.267 3.508-10.75 3.508H94v-17h12.583c7.289 0 12.443-.39 12.25-.926-.183-.509-2.347-2.513-4.808-4.454l-4.475-3.53-2.848 3.455c-2.544 3.087-3.372 3.455-7.775 3.455H94v-4.64c0-3.246.526-5.039 1.75-5.968 1.605-1.218 1.542-1.332-.75-1.371-1.375-.024-4.187-.322-6.25-.663l-3.75-.62v6.631m69 1.099V116H178.127l-.314-3.25-.313-3.25-11.75-.282-11.75-.281v3.531m-.214 8.538c-.243 1.653-.219 3.228.053 3.5.272.272 5.819.494 12.328.494H178v-7h-23.773l-.441 3.006m-87.74 38.616.997 2.621-5.782-.418c-5.381-.389-5.946-.22-8.153 2.446-1.678 2.026-2.061 3.176-1.307 3.93 1.469 1.469 4.28.206 4.911-2.206.479-1.832 1.371-1.995 10.905-1.995 8.761 0 10.383.245 10.383 1.567 0 1.09-.584 1.382-1.916.96-1.054-.335-2.205-.14-2.559.432-.354.573-4.329 1.109-8.834 1.191-6.582.121-7.307.268-3.691.75 4.476.597 4.66.824 4.125 5.1-.069.55-3.163 1.079-6.875 1.177l-6.75.176 7 .574 7 .573v3.991c0 3.625-.275 4.049-3 4.631-1.65.353-2.243.695-1.317.76.925.065 1.968 1.018 2.317 2.118.764 2.408 1.381 2.472 4.277.443 1.834-1.284 2.223-2.508 2.223-7V176h7.155c7.101 0 7.141-.015 5.338-2.008-1.63-1.801-1.989-1.853-3.484-.5-.917.829-3.319 1.508-5.338 1.508-3.412 0-3.671-.211-3.671-3 0-2.834.221-3 4.009-3 2.924 0 4.815-.719 6.991-2.658 4.202-3.744 2.606-5.363-4.558-4.624-4.989.515-5.442.393-5.442-1.471 0-1.988-1.767-3.247-4.557-3.247-1.09 0-1.177.57-.397 2.622m38.973-.072.969 2.549-5.744-.299c-5.241-.274-5.953-.054-8.134 2.51-1.7 2-2.08 3.12-1.317 3.883 1.453 1.453 4.283.233 4.896-2.111.547-2.093 5.96-2.861 16.061-2.28 4.497.259 5.25.592 5.25 2.318 0 1.989.042 1.987 3.041-.15 4.56-3.246 2.537-4.923-5.104-4.231-5.394.49-5.917.372-5.314-1.199.728-1.898-1.02-3.5-3.848-3.525-1.437-.012-1.564.411-.756 2.535m29.981-2c0 .302.687 1.877 1.526 3.5 1.447 2.798 1.421 2.95-.5 2.95-1.114 0-2.026-.513-2.026-1.14 0-.626-1.132.53-2.517 2.569-1.384 2.04-2.257 4.128-1.941 4.64 1.184 1.914 3.597.83 4.608-2.069l1.046-3h10.509c9.172 0 10.432.201 9.902 1.582-.334.87-.607 1.825-.607 2.122 0 .298-.635.014-1.411-.63-.965-.801-1.616-.839-2.059-.123-.356.577-4.109 1.137-8.339 1.245l-7.691.196 6.75.35c3.713.192 6.75.689 6.75 1.104 0 1.373-2.372 3.154-4.2 3.154-.99 0-1.8.675-1.8 1.5 0 1.179-1.389 1.5-6.5 1.5-3.667 0-6.5.436-6.5 1 0 .564 2.833 1 6.5 1h6.5v3c0 2.518-.394 3-2.452 3h-2.453l2.435 2.627c2.34 2.525 2.531 2.563 4.952.977 1.969-1.29 2.518-2.49 2.518-5.498v-3.848l7.14-.703c6.646-.655 7.025-.818 5.484-2.36-1.364-1.364-2.004-1.439-3.627-.425-2.374 1.482-8.997 1.641-8.997.215 0-.558 1.463-1.876 3.25-2.928 1.787-1.053 3.925-2.559 4.75-3.347.825-.788 2.55-1.981 3.833-2.651 2.241-1.17 2.263-1.295.574-3.162-1.2-1.326-2.085-1.619-2.783-.921-.563.563-2.172 1.012-3.574.997-2.539-.027-2.535-.039.841-2.839 2.88-2.389 3.131-2.912 1.668-3.473-2.912-1.118-3.533-.782-5.26 2.839-1.972 4.135-3.894 4.574-3.838.877.036-2.448-2.71-5.462-3.896-4.275-.292.292-.12 1.963.382 3.714.841 2.931.728 3.184-1.423 3.184-1.796 0-2.223-.436-1.844-1.883.317-1.213-.329-2.458-1.816-3.5-2.346-1.643-3.864-2.062-3.864-1.067m38 3.45c0 3.664-.231 4.011-2.75 4.136-2.358.117-2.429.198-.5.57 2.611.503 2.859 2.947.841 8.294-2.914 7.72-2.911 7.657-.179 4.694l2.588-2.806v7.13c0 6.25.216 7.088 1.75 6.795 1.471-.28 1.839-1.844 2.309-9.823.307-5.22.644-8.703.75-7.74.105.963.866 1.75 1.691 1.75.825 0 1.5.466 1.5 1.035 0 .714.601.714 1.934 0 2.692-1.44 2.608-1.506 4.005 3.156 1.2 4.005 1.144 4.273-1.264 6.027-6.598 4.807-7.085 5.894-1.291 2.885l5.884-3.056 2.943 2.477c3.275 2.756 4.812 3.053 6.589 1.276 1.808-1.808 1.474-2.514-1.544-3.272-4.741-1.19-5.255-2.177-3.413-6.551.912-2.163 2.107-3.889 2.657-3.836 2.56.246 3.5-.282 3.5-1.967 0-1.96-3.393-5.485-6.25-6.494-2.144-.756-2.293.625-.25 2.32 1.921 1.594 1.966 4.116.061 3.385-1.02-.392-1.759.636-2.538 3.531-1.305 4.845-2.431 5.129-4.497 1.134-1.959-3.789-1.928-4.242.478-6.824 1.976-2.121 1.977-2.166.066-3.189-2.732-1.462-2.785-1.429-4.073 2.472l-1.158 3.51-2.864-2.26c-3.563-2.81-3.682-3.759-.475-3.759 1.375 0 2.5-.45 2.5-1 0-.598 3.905-1 9.714-1 9.159 0 9.617-.098 8.007-1.707-1.333-1.334-1.971-1.443-2.914-.5-1.782 1.782-3.807 1.466-3.807-.593 0-2.296-1.894-4.2-4.179-4.2-1.535 0-1.622.343-.637 2.504.627 1.378.955 2.685.728 2.906-.226.22-3.039.585-6.25.81l-5.838.41.387-3.315c.339-2.904.103-3.315-1.912-3.315-2.016 0-2.299.493-2.299 4m-68.184 6.75c-.27 2.352-.75 2.732-3.316 2.626-1.65-.068-3.787-.454-4.75-.857-1.603-.671-1.75.16-1.75 9.874 0 5.861.416 10.607.929 10.607.51 0 1.603-.675 2.428-1.5 1.797-1.797 15.643-2.178 15.643-.43 0 .588 1.013.925 2.25.75 2.095-.298 2.284-.93 2.75-9.171.442-7.83.291-8.963-1.314-9.82-1.059-.565-2.308-.601-3-.087-.652.484-1.748.797-2.436.694a81.358 81.358 0 0 0-2.367-.311c-.636-.071-.911-1.199-.638-2.625.397-2.079.091-2.5-1.817-2.5-1.76 0-2.369.641-2.612 2.75M99 175.066c0 2.756.279 3.035 2.75 2.75 2.16-.248 2.818-.906 3.066-3.066.285-2.471.006-2.75-2.75-2.75-2.755 0-3.066.311-3.066 3.066m10-.066c0 2.533.389 3 2.5 3 2.111 0 2.5-.467 2.5-3s-.389-3-2.5-3c-2.111 0-2.5.467-2.5 3m-10 7.566c0 3.301.205 3.543 2.75 3.25 2.291-.263 2.802-.858 3.063-3.566.292-3.028.104-3.25-2.75-3.25-2.845 0-3.063.254-3.063 3.566m10-.066c0 3.067.31 3.5 2.5 3.5s2.5-.433 2.5-3.5-.31-3.5-2.5-3.5-2.5.433-2.5 3.5m-46 24.444c0 .361.468 1.124 1.041 1.697.715.715.723 2.421.024 5.45-1.358 5.892-1.272 11.057.217 12.996 2.794 3.639 8.82 4.999 12.773 2.883 2.192-1.172 4.942-5.99 4.951-8.67.011-3.736 2.13-9.3 3.541-9.3.799 0 1.453-.45 1.453-1s-1.088-1-2.418-1-3.243-.309-4.25-.687c-1.62-.608-1.671-.49-.445 1.018 1.612 1.981.998 10.041-1.099 14.44-1.689 3.54-6.561 4.242-9.2 1.326-1.635-1.807-1.697-2.65-.638-8.733.668-3.831 1.854-7.231 2.752-7.888 1.306-.955.689-1.331-3.561-2.172-2.828-.559-5.141-.721-5.141-.36m49.152 5.962c-1.818 1.124-1.055 4.489 1.113 4.906.957.185 2.026-.407 2.375-1.316.818-2.132-1.683-4.706-3.488-3.59M187 214c-4.501 4.501-1.269 13 4.943 13 1.908 0 3.491-.782 4.5-2.223 1.954-2.789 2.021-4.407.117-2.827-2.311 1.918-7.008.911-7.364-1.579-.246-1.73.355-2.252 3.215-2.788 4.276-.803 5.116-1.913 3.027-4.002-2.173-2.174-6.037-1.982-8.438.419m1.931.584c-.669.805-.961 1.72-.649 2.031.772.772 4.718-.546 4.718-1.575 0-1.588-2.864-1.908-4.069-.456m-16.233 2.197c-2.592 2.864-2.049 5.08 1.802 7.352 1.925 1.135 3.5 2.695 3.5 3.466 0 1.887-1.936 1.769-4.171-.254-1.716-1.553-1.829-1.526-1.829.433 0 1.16.83 2.351 1.868 2.68 2.114.671 6.587-.767 7.629-2.453 1.373-2.222-.479-5.626-3.966-7.289-1.942-.926-3.531-2.141-3.531-2.7 0-1.427 3.339-1.267 4.897.234 1.049 1.011 1.229.868.942-.75-.485-2.723-4.923-3.17-7.141-.719m-10.046 1.71c-1.109 1.109-1.596 1.176-1.901.262-.321-.964-.979-.97-3.042-.03-2.415 1.1-2.544 1.451-1.564 4.263.587 1.685.885 4.628.662 6.539-.432 3.705.267 4.097 5.028 2.823 1.427-.383 1.895-.897 1.205-1.323-.621-.384-1.221-2.684-1.334-5.111-.193-4.131-.03-4.434 2.544-4.73 1.943-.224 2.75-.884 2.75-2.25 0-2.3-2.261-2.53-4.348-.443m-70.578.472c-2.138.522-2.465 1.231-2.746 5.957-.176 2.951-.827 5.976-1.446 6.723-.899 1.082-.613 1.357 1.414 1.357 1.397 0 3.152.234 3.898.521 1.049.403 1.352-.792 1.332-5.25-.023-5.113.202-5.771 1.974-5.771 1.626 0 1.993.655 1.964 3.5-.019 1.925-.371 4.462-.781 5.637-.65 1.862-.324 2.186 2.536 2.52l3.281.384-.124-6.266c-.145-7.384-1.568-9.687-5.5-8.9-1.504.301-2.88.198-3.056-.229-.176-.426-1.412-.509-2.746-.183m49.561 2.11c-3.254 2.559-3.69 8.662-.806 11.272C144.27 235.459 151 233.974 151 230.1c0-1.167-.267-1.233-1.2-.3-1.845 1.845-4.526 1.429-6.202-.963-2.045-2.92-1.218-3.837 3.461-3.837 4.381 0 5.155-1.591 2.112-4.345-2.424-2.194-4.352-2.087-7.536.418m-30.385-.367c-2.203.424-3.222 2.294-1.25 2.294.55 0 1 2.25 1 5s-.45 5-1 5-1 .45-1 1 1.855 1 4.122 1c3.573 0 3.955-.202 2.863-1.518-.854-1.029-1.085-3.444-.717-7.5.382-4.208.2-5.942-.613-5.846-.635.075-2.168.331-3.405.57m8.75.377c0 .505.386.917.858.917.473 0 2.16 2.912 3.75 6.471 1.591 3.558 3.342 6.338 3.892 6.175.55-.162 2.063-2.961 3.362-6.22s2.762-6.076 3.25-6.259c2.039-.766.667-2.167-2.12-2.167-2.612 0-2.866.231-1.924 1.75.786 1.268.767 2.577-.069 4.75l-1.154 3-1.432-3.387c-1.023-2.421-1.129-3.751-.369-4.666.837-1.009.096-1.28-3.491-1.28-2.504 0-4.553.412-4.553.916m23.667.584c-1.268 1.267-.659 2.333 1.333 2.333 1.111 0 2-.667 2-1.5 0-1.522-2.115-2.051-3.333-.833" fill="#1976D2" fill-rule="evenodd"/><path fill-opacity=".107" d="M102.321 21.262c-1.811.815-2.024 1.39-1.257 3.406.507 1.334 1.038 6.248 1.179 10.919.24 7.944.386 8.46 2.257 7.967 1.1-.29 2.306-.533 2.68-.54.374-.008.262-1.474-.25-3.257-1.378-4.806-1.135-7.464.748-8.187.922-.354 2.237-.064 2.922.643 1.522 1.572 2.129 7.798.948 9.709-.677 1.096-.347 1.256 1.546.749 1.323-.354 3.081-.657 3.906-.673.97-.018 1.113-.288.404-.763-.603-.404-1.387-2.91-1.742-5.568-.356-2.658-.902-5.246-1.213-5.75-.808-1.307-4.831-1.135-6.232.266-1.724 1.724-2.605.316-3.195-5.103-.489-4.496-.659-4.736-2.701-3.818m51.484-.583c-.932.245-1.466 1.042-1.186 1.77.397 1.035-.661 11.364-1.95 19.044-.093.554.994 1.142 2.415 1.307 2.357.274 2.545.034 2.139-2.737-.74-5.041.504-8.242 3.062-7.878 1.971.28 2.196.855 2.041 5.209-.1 2.804-.741 5.253-1.5 5.735-.863.547-.105.844 2.174.851l3.5.011v-5.745c0-7.403-.807-8.62-5.237-7.901l-3.482.565.681-5.455c.375-3 .312-5.403-.14-5.339-.452.064-1.585.317-2.517.563m-64.89 4.923c-.888 1.07-.927 1.786-.14 2.573 1.381 1.381 4.225.347 4.225-1.537 0-2.083-2.656-2.757-4.085-1.036m85.526.494c-.373.603-.062 1.711.691 2.464 1.734 1.734 4.398.263 3.545-1.959-.703-1.832-3.23-2.133-4.236-.505M67.933 29.009c-1.387.784-1.251 1.837 1.194 9.188 1.518 4.567 2.785 9.364 2.816 10.66.042 1.728.479 2.195 1.639 1.75.87-.334 2.252-.607 3.071-.607 1.302 0 1.307-.183.039-1.451-3.498-3.498-2.795-12.293.87-10.887 1.579.606 3.845 7.834 3.081 9.826-.385 1.003.231 1.056 2.86.25 2.805-.861 3.131-1.247 2.005-2.373-.74-.739-1.658-2.812-2.042-4.605-.383-1.793-1.15-3.822-1.704-4.51-1.395-1.731-4.758-1.563-6.865.343-1.646 1.49-1.841 1.311-2.997-2.75-1.532-5.377-1.998-5.945-3.967-4.834m68.522 1.446c-2.819 2.818-3.137 6.126-.898 9.322 2.021 2.886 6.51 2.925 9.038.077 1.895-2.134 1.893-2.139-.345-.964-4.477 2.349-8.84-3.051-6.3-7.797 1.287-2.404 2.296-2.581 5.018-.881 1.068.667 2.286.867 2.708.446.421-.422.104-1.185-.705-1.697-2.581-1.632-5.988-1.035-8.516 1.494M91.5 32.213c-2.893 1.565-2.906 1.593-1.516 3.267.697.841 1.324 3.553 1.392 6.028.091 3.299.479 4.366 1.456 3.996.732-.277 2.307-.511 3.5-.519 1.442-.01 1.753-.279.928-.803-.682-.433-1.807-3.547-2.5-6.919-1.168-5.683-1.406-6.053-3.26-5.05m83.5.724c-1.828.412-2.515 1.235-2.555 3.063-.031 1.375-.379 4.133-.773 6.129-.65 3.29-.494 3.672 1.669 4.085 1.803.345 2.29.069 1.993-1.129-.217-.872.258-4.059 1.054-7.084.797-3.024 1.372-5.527 1.28-5.563-.092-.035-1.293.189-2.668.499m-48.5.868c-1.65.192-3.45.823-4 1.402-.696.733.178.875 2.874.466 5.833-.885 6.825-2.531 1.126-1.868m-75.05 1.602c-1.677.73-4.313 2.829-5.857 4.664-2.421 2.878-2.737 3.958-2.298 7.85.366 3.247 1.253 5.153 3.162 6.796 5.955 5.122 20.952.891 18.49-5.217-.79-1.959-.808-1.957-.877.095-.08 2.402-2.529 4.851-5.869 5.87-4.42 1.348-11.189-5.762-11.197-11.76-.008-5.543 8.221-10.08 11.796-6.505.667.667 1.2.756 1.2.2 0-1.523-2.211-3.405-3.95-3.361-.853.022-2.922.637-4.6 1.368m132.939 1.413c.724 1.172-1.786 9.189-3.139 10.026-.664.41.277 1.143 2.267 1.765 1.87.586 3.146.652 2.834.148-.745-1.205 1.664-9.759 2.748-9.759.461 0 .579-.675.263-1.5-.317-.825-1.679-1.5-3.028-1.5s-2.224.369-1.945.82m6.611.82c0 .352.709 1.158 1.575 1.791 1.423 1.041 1.384 1.656-.404 6.361-1.515 3.987-1.669 5.208-.657 5.208.727 0 1.922.23 2.654.511.846.325 1.388-.314 1.486-1.75.085-1.244.488-4.219.896-6.612.555-3.262.391-4.573-.655-5.235-1.621-1.027-4.895-1.21-4.895-.274m13.005 6.854c-.682.822-1.014 2.678-.738 4.124.386 2.016.046 2.749-1.456 3.142-1.49.389-1.817 1.079-1.366 2.876.411 1.64.165 2.364-.804 2.364-2.437 0-3.909 2.63-2.718 4.856 2.47 4.616 13.142 4.667 14.601.069.818-2.577.028-3.603-4.592-5.96-5.14-2.622-4.987-3.838.407-3.23 3.789.427 4.6.158 6.394-2.123 1.13-1.437 2.89-2.648 3.911-2.691 1.414-.06 1.498-.213.356-.643-.825-.31-2.694-1.399-4.154-2.421-3.197-2.237-8.135-2.419-9.841-.363m3.195.706c-.66.66-1.2 2.46-1.2 4 0 3.654 3.54 3.904 5.153.364 1.939-4.256-.913-7.404-3.953-4.364m-6.95 12.462c-2.132.86-1.377 4.208 1.351 5.996 2.781 1.822 5.628 1 6.178-1.783.225-1.143-4.655-5.088-5.933-4.796-.19.043-.908.306-1.596.583M161 77.383V82h-12.5c-7.667 0-12.5.387-12.5 1s4.833 1 12.5 1H161v7l-10.75.196-10.75.195 10.5.555 10.5.554.31 3.75.311 3.75h-15.12c-9.825 0-14.903.35-14.501 1 .819 1.324 67.5 1.375 67.5.051 0-.522-1.631-2.193-3.624-3.713l-3.624-2.765-2.164 2.714c-2.073 2.6-2.549 2.713-11.436 2.713h-9.273l.311-3.75.31-3.75 10.93-.5 10.929-.5-3.824-2.911-3.825-2.912-1.938 2.662C180.085 90.654 179.13 91 174.417 91H169v-7h13.5c7.425 0 13.484-.338 13.464-.75-.02-.412-1.676-1.994-3.68-3.515l-3.644-2.764-2.625 2.514c-2.306 2.21-3.496 2.515-9.82 2.515H169v-2.95c0-1.755.709-3.364 1.75-3.97 1.433-.834 1.116-1.027-1.75-1.063-1.925-.024-4.512-.316-5.75-.647-2.095-.562-2.25-.286-2.25 4.013m-50.344-.386L108.129 80H82.506c-16.41 0-25.407.351-25.021.976.353.571 5.778.882 13.06.75 7.605-.138 12.456.155 12.456.752-.002 2.669-15.935 15.199-21.749 17.103-.136.045.539 1.956 1.5 4.248 1.21 2.884 2.202 3.997 3.222 3.614.811-.304 9.081-2.097 18.377-3.986 9.296-1.888 18.423-3.853 20.282-4.366 3.25-.898 3.496-.764 6.421 3.488 3.561 5.175 7.484 6.11 8.508 2.029 1.349-5.374-6.541-13.179-15.859-15.688-2.106-.567-4.587-1.311-5.516-1.653-.928-.343.563 1.438 3.313 3.957 2.75 2.518 4.732 4.854 4.404 5.191-.681.697-22.868 2.544-30.404 2.531l-5-.009 9-4.794c4.95-2.637 10.234-5.482 11.742-6.321l2.741-1.526-3.991-1.8C87.796 83.506 86 82.422 86 82.088c0-.335 7.873-.532 17.496-.438 9.623.094 17.719-.189 17.991-.628.427-.691-3.574-4.244-7.146-6.346-.653-.384-2.261.629-3.685 2.321m-95.803 3.762C4.09 97.701.416 111.761 1.231 132.893c.418 10.82.955 14.004 3.788 22.46 1.966 5.866 5.437 13.254 8.579 18.258 5.766 9.185 12.485 17.443 13.624 16.747.397-.243-1.929-3.598-5.168-7.456-23.822-28.372-26.497-69.179-6.555-100.007 4.679-7.232 4.997-7.901 3.751-7.886-.413.005-2.391 2.592-4.397 5.75M236 75.469c0 .258 1.941 3.52 4.313 7.25 9.965 15.666 14.281 31.619 13.333 49.281-.683 12.717-2.654 20.865-7.659 31.673-4.359 9.413-7.834 14.717-14.502 22.133-2.607 2.9-4.48 5.532-4.162 5.851 1.018 1.018 8.996-8.499 14.765-17.613 3.35-5.293 6.947-12.776 8.98-18.686 3.343-9.712 3.393-10.11 3.372-26.858-.021-15.95-.196-17.525-2.846-25.5-1.554-4.675-3.719-10.3-4.812-12.5C242.462 81.806 236 72.796 236 75.469m-91 39.903c0 12.807-1.627 19.843-5.71 24.696l-2.661 3.162 4.059-2.071c4.59-2.341 8.955-7.084 10.99-11.94l1.374-3.28 12.224.28 12.224.281v8l-5.5-.209c-5.119-.194-5.268-.138-2.142.807 2.323.702 3.701 1.923 4.469 3.959 1.364 3.611 5.097 3.971 9.038.87 2.612-2.054 2.635-2.189 2.635-15.45 0-11.114.266-13.526 1.569-14.256 1.303-.729.975-1.331-1.933-3.55-4.196-3.2-4.796-3.256-7.136-.671-1.584 1.751-3.08 2-11.998 2-7.491 0-11.687-.515-15.845-1.946L145 104.108v11.264M85 112v6H74c-6.05 0-11.001.338-11.001.75-.001.412 4.837.75 10.75.75H84.5l.289 8.75.289 8.75H70.539c-9.026 0-14.539.379-14.539 1 0 .647 12 1 34 1 18.7 0 34-.354 34-.786 0-.843-7.943-7.214-8.994-7.214-.346 0-1.628 1.35-2.848 3-2.143 2.899-2.488 3-10.227 3h-8.009l.289-8.75.289-8.75h11.16c6.138 0 11.446-.283 11.796-.629.35-.347-1.241-2.117-3.536-3.934l-4.172-3.304-2.624 3.192c-2.346 2.855-3.18 3.192-7.874 3.184L94 118v-4.8c0-2.64.54-5.34 1.2-6 .933-.933-.067-1.2-4.5-1.2H85v6m68.667-2.333c-.367.366-.667 1.941-.667 3.5V116h25v-7h-11.833c-6.509 0-12.134.3-12.5.667M153 121.5v3.5h25v-7h-25v3.5M66.65 160c1.696 3.4 2.835 3.783 3.797 1.276.682-1.775-1.694-4.276-4.061-4.276-.918 0-.851.766.264 3m38.15-1.8c.66.66 1.2 2.01 1.2 3 0 2.295 2.574 2.352 3.447.076.716-1.864-1.731-4.276-4.338-4.276-1.174 0-1.242.267-.309 1.2m31.429 1.589c1.601 3.772 2.103 4.242 3.563 3.339 1.766-1.091.579-3.638-2.308-4.953-2.332-1.063-2.37-1.014-1.255 1.614m7.921.211c1.044 2.995 3.85 4.201 3.85 1.655 0-1.322-3.063-4.655-4.277-4.655-.34 0-.148 1.35.427 3m7.432.75c-.917 1.924-1.536 3.613-1.375 3.754.161.141 1.806-1.199 3.655-2.978 3.077-2.959 3.193-3.278 1.375-3.754-1.525-.399-2.375.293-3.655 2.978M174 161c0 2.2-.436 4-.969 4-.532 0-.748.573-.479 1.274.432 1.128-.875 6.359-3.055 12.226-.642 1.729-.515 1.695.937-.25 2.723-3.648 3.566-2.644 3.566 4.25 0 5.111.321 6.5 1.5 6.5 1.226 0 1.512-1.78 1.568-9.75.054-7.759.289-9.291 1.152-7.5 1.338 2.774 2.78 2.922 2.78.285 0-1.08-.9-2.446-2-3.035s-2-1.505-2-2.035c0-.531.9-.965 2-.965 1.987 0 2.602-1.065 1.342-2.325-.362-.362-1.262-.156-2 .456-1.086.901-1.342.327-1.342-3.009 0-2.997-.409-4.122-1.5-4.122-1.083 0-1.5 1.111-1.5 4m14-3.684c0 1.443 2.345 6.684 2.991 6.684 1.087 0 2.146-2.97 1.457-4.085-.609-.984-4.448-3.228-4.448-2.599m-108.573 5.013c-.328.855-.446 2.305-.262 3.223.298 1.485.53 1.452 2.11-.298 1.575-1.745 1.605-2.109.262-3.223-1.234-1.025-1.623-.97-2.11.298m38.941-.128c-1.178 1.889-1.492 4.799-.517 4.799.462 0 1.595-.835 2.519-1.857 1.451-1.602 1.484-2.019.244-3.048-1.119-.929-1.615-.905-2.246.106m77.615.32c-1.039 1.252-.748 1.479 1.895 1.479 3.589 0 3.91-.508 1.227-1.944-1.407-.753-2.211-.633-3.122.465M53.75 163.893c-2.128 2.159-2.293 5.107-.285 5.107 1.606 0 3.535-2.966 3.535-5.434 0-2.009-1.05-1.903-3.25.327m39 .069c-2.267 2.21-2.313 5.293-.072 4.861 1.674-.322 3.741-5.475 2.484-6.19-.364-.208-1.449.39-2.412 1.329m39.91.788c-.437 1.238-1.214 2.25-1.727 2.25-.513 0-.933.9-.933 2s.395 2 .878 2c1.748 0 3.259-2.942 2.921-5.69-.33-2.688-.379-2.713-1.139-.56m24.007-1.083c-.367.366-.667 1.742-.667 3.056 0 2.376.017 2.38 2.962.64 2.26-1.335 2.705-2.059 1.878-3.056-1.173-1.413-3.105-1.709-4.173-.64M105 175.5c0 9.833.127 10.5 2 10.5s2-.667 2-10.5-.127-10.5-2-10.5-2 .667-2 10.5m-31.789-7.962c-1.1 1.246-.823 1.462 1.872 1.462 2.697 0 2.979-.22 1.917-1.5-1.527-1.84-2.138-1.834-3.789.038m110.021 3.712-2.165 5.25 3.955-4.365c3.784-4.177 4.3-6.135 1.617-6.135-.683 0-2.216 2.363-3.407 5.25m12.153-2.785c2.064 3.15 2.031 3.535-.306 3.535-1.31 0-2.124.931-2.564 2.931-.841 3.829-3.036 5.761-3.922 3.451-.352-.917-.891-1.417-1.198-1.111-.306.307-.072 1.464.521 2.573.924 1.726.545 2.454-2.646 5.085-4.25 3.503-3.584 4.046 1.276 1.043l3.282-2.029 3.725 2.529c4.332 2.939 5.028 3.062 5.811 1.022.395-1.029-.565-2.058-3.032-3.25-1.985-.959-3.519-2.069-3.408-2.467 1.327-4.764 3.826-8.634 5.466-8.468 2.917.295 3.027-1.983.229-4.781-3.316-3.316-5.392-3.357-3.234-.063m-46.203 2.503c-1.233 1.667-2.903 3.032-3.712 3.032-1.545 0-1.774 1.116-1.49 7.25.157 3.404-.064 3.75-2.394 3.75-2.471 0-2.502.075-.854 2 1.919 2.242 5.099 2.655 5.773.75.244-.687.577-3.95.74-7.25.284-5.736.451-6.077 3.776-7.747 3.634-1.824 4.574-4.015 1.941-4.522-.846-.163-2.547 1.069-3.78 2.737m-83.271 1.282c-.049 1.787-.015 5.387.074 8 .144 4.198-.079 4.75-1.919 4.75-1.833 0-1.933.24-.834 2 1.392 2.228 4.584 2.681 5.283.75.249-.687.574-5.187.722-10 .238-7.774.073-8.75-1.484-8.75-1.293 0-1.776.853-1.842 3.25m48.994-2.5c-.383 3.042.045 18.533.526 19.014.331.331 1.016.183 1.522-.331 1.1-1.116 1.638-16.668.632-18.295-.791-1.281-2.535-1.533-2.68-.388M95 179.427c0 8.965.129 9.573 2.038 9.573 1.923 0 2.021-.516 1.75-9.239-.245-7.868-.548-9.288-2.038-9.573-1.568-.3-1.75.66-1.75 9.239m-16.789-4.889c-1.1 1.246-.823 1.462 1.872 1.462 2.697 0 2.979-.22 1.917-1.5-1.527-1.84-2.138-1.834-3.789.038m78.427 1.962c-.42 1.095.124 1.5 2.016 1.5 2.19 0 2.398-.232 1.346-1.5-.685-.825-1.592-1.5-2.015-1.5-.424 0-1.03.675-1.347 1.5m-92.057 31.849c.335.875.074 4.768-.581 8.651-1.406 8.334-.27 11.096 5.321 12.941 6.652 2.195 10.719-1.298 12.756-10.954.636-3.018 1.55-5.978 2.031-6.579 1.116-1.393.106-2.408-2.397-2.408-1.532 0-1.712.294-.832 1.355 1.04 1.252.323 8.214-1.415 13.743-1.176 3.741-8.828 4.358-10.975.884-1.342-2.171.58-14.051 2.6-16.071 1.881-1.881 1.876-1.911-.339-1.925-1.237-.007-3.269-.286-4.515-.62-1.787-.479-2.136-.272-1.654.983m126.881 4.999c2.186 1.599 1.266 3.652-1.638 3.652-1.634 0-1.941-.463-1.492-2.25l.564-2.25-1.948 2.361c-1.071 1.298-1.948 3.456-1.948 4.795 0 2.596 4.03 7.344 6.232 7.344 1.859 0 5.768-2.885 5.768-4.257 0-.826-.333-.81-1.2.057-1.76 1.76-4.249 1.466-6.243-.737-2.239-2.474-1.375-3.819 2.978-4.636 3.823-.717 4.542-2.78 1.531-4.392-2.83-1.514-4.782-1.279-2.604.313m-80.139 1.253c-.853 2.222 1.811 3.693 3.545 1.959.753-.753 1.064-1.861.691-2.464-1.006-1.628-3.533-1.327-4.236.505m66.183 2.405c.998 1.104 2.032 1.789 2.297 1.524.672-.672-1.822-3.53-3.08-3.53-.568 0-.216.903.783 2.006m-5.467.922c-1.462 2.731-.482 4.49 3.582 6.428 3.616 1.724 4.082 3.879.971 4.482-.959.186-2.402-.489-3.207-1.5-1.408-1.767-1.453-1.761-1.166.162.202 1.354 1.203 2.104 3.1 2.322 6.388.735 7.996-5.75 2.12-8.552-2.564-1.223-3.43-2.198-3.093-3.484.623-2.384-1.009-2.284-2.307.142m-9.063.802c-1.594 1.116-2.473 1.28-2.729.51-.28-.839-1.015-.847-2.805-.031-1.541.701-2.114 1.504-1.571 2.198 1.64 2.094 2.296 9.863.918 10.854-.912.656-.752.754.543.333 1.007-.327 3.006-.594 4.441-.594 2.372 0 2.449-.117.85-1.286-1.324-.969-1.68-2.389-1.441-5.75.282-3.963.588-4.464 2.73-4.464 1.326 0 2.587-.521 2.802-1.158.677-2.003-1.292-2.326-3.738-.612m-72.021.92c-1.121.303-1.435 1.363-1.144 3.859.221 1.893-.073 4.802-.652 6.466-1.005 2.88-.926 3.025 1.643 3.019 2.563-.006 2.703-.261 2.804-5.102.107-5.136 1.452-7.191 4.053-6.192 1.613.619 1.857 9.384.304 10.937-.715.715.072 1.078 2.542 1.171 2.378.089 3.349-.235 2.896-.969-.375-.606-.731-3.631-.791-6.721l-.11-5.618-4.25.086c-2.338.048-4.25-.29-4.25-.75 0-.866-.433-.893-3.045-.186m21.687 1.221c-1.508.593-1.884 1.898-2 6.931-.131 5.737.02 6.199 2.026 6.199 1.986-.001 2.196-.589 2.5-7.003.183-3.851.107-6.97-.168-6.93-.275.04-1.336.401-2.358.803M141 222c-4.031 4.031-1.44 12 3.902 12 1.533 0 3.532-.822 4.441-1.827 1.57-1.735 1.502-1.804-1.354-1.385-3.435.504-5.989-1.164-5.989-3.91 0-1.511.75-1.878 3.833-1.878 2.109 0 4.118-.284 4.465-.631 1.051-1.052-1.252-4.369-3.033-4.369-1.295 0-1.398.267-.465 1.2 1.945 1.945 1.396 2.8-1.8 2.8-3.339 0-3.923-1.363-1.25-2.92.971-.566 1.194-1.033.5-1.05-.687-.016-2.15.87-3.25 1.97m-16.518 5.25c1.73 3.438 3.538 6.396 4.018 6.573.481.178 1.692-1.847 2.693-4.5 1.001-2.652 2.27-5.61 2.822-6.573.747-1.306.651-1.75-.379-1.75-.837 0-1.632 1.574-2.02 4-.352 2.2-1.03 4-1.506 4-1.254 0-3.422-5.685-2.647-6.94.412-.667-.601-1.06-2.736-1.06h-3.391l3.146 6.25" fill="#1976D2" fill-rule="evenodd"/></svg>